<svg width="16" height="22" viewBox="0 0 16 22" fill="none" xmlns="http://www.w3.org/2000/svg">
<path d="M11.255 2.71C11.735 3.42 12.015 4.27 12.015 5.19C12.005 7.59 10.115 9.54 7.735 9.62C7.635 9.61 7.515 9.61 7.405 9.62C5.195 9.55 3.405 7.86 3.165 5.7C2.875 3.13 4.985 0.75 7.565 0.75M2.565 13.31C0.145 14.93 0.145 17.57 2.565 19.18C5.315 21.02 9.825 21.02 12.575 19.18C14.995 17.56 14.995 14.92 12.575 13.31C9.845 11.48 5.335 11.48 2.565 13.31Z" stroke="#272727" stroke-opacity="0.5" stroke-width="1.5" stroke-linecap="round" stroke-linejoin="round"/>
</svg>
