<svg width="20" height="20" viewBox="0 0 20 20" fill="none" xmlns="http://www.w3.org/2000/svg">
<path d="M9.65179 5.191V8.521M18.2418 13.92C18.9718 15.14 18.3918 16.72 17.0418 17.17C12.2605 18.76 7.09307 18.76 2.31179 17.17C0.871788 16.69 0.321788 15.23 1.11179 13.92L2.38179 11.8C2.73179 11.22 3.01179 10.19 3.01179 9.52V7.42C3.01047 6.54456 3.18177 5.67744 3.51588 4.86826C3.84999 4.05907 4.34035 3.3237 4.95892 2.7042C5.57749 2.08471 6.31212 1.59324 7.1208 1.25792C7.92948 0.922596 8.79634 0.749999 9.67179 0.75C13.3318 0.75 16.3318 3.75 16.3318 7.41V9.51C16.3318 9.69 16.3518 9.89 16.3818 10.1" stroke="#272727" stroke-opacity="0.5" stroke-width="1.5" stroke-miterlimit="10" stroke-linecap="round"/>
</svg>
